<svg width="144" height="40" fill="transparent" xmlns="http://www.w3.org/2000/svg"><path d="M75.875 8h-.9v6.497h.9V8z" fill="#fff"/><path fill-rule="evenodd" clip-rule="evenodd" d="M53.441 8.305c.395-.029.79.032 1.16.179.368.147.7.376.972.67.272.294.477.647.6 1.032s.161.794.111 1.196c0 1.978-1.043 3.115-2.843 3.115H51.26V8.305h2.182zm-1.243 5.316h1.139c.281.018.564-.03.825-.138a1.9 1.9 0 00.688-.49 1.963 1.963 0 00.479-1.598 1.997 1.997 0 00-.487-1.59 1.905 1.905 0 00-.684-.485 1.863 1.863 0 00-.821-.14h-1.14v4.441zm5.146-1.462a2.266 2.266 0 01.1-.91c.096-.293.25-.562.452-.79.202-.229.45-.41.724-.536a2.115 2.115 0 011.748 0c.276.125.522.307.725.536a2.266 2.266 0 01.552 1.7c.029.307-.005.617-.1.91a2.228 2.228 0 01-.45.792c-.203.229-.45.412-.726.537a2.115 2.115 0 01-1.75 0 2.164 2.164 0 01-.725-.537 2.228 2.228 0 01-.45-.792 2.267 2.267 0 01-.1-.91zm3.375 0c0-1.013-.444-1.606-1.223-1.606-.782 0-1.222.593-1.222 1.606 0 1.02.44 1.608 1.222 1.608.779 0 1.223-.591 1.223-1.608z" fill="#fff"/><path d="M66.427 14.497h.934l1.251-4.673h-.9L66.9 13.39h-.071l-.938-3.566h-.863l-.937 3.566h-.068l-.816-3.566h-.913l1.257 4.673h.924l.939-3.441h.07l.943 3.441zm3.243-4.673h.866v.742h.067a1.39 1.39 0 01.55-.639 1.33 1.33 0 01.81-.193 1.45 1.45 0 01.652.1c.207.083.394.213.545.38a1.557 1.557 0 01.381 1.258v3.025h-.9v-2.793c0-.751-.318-1.125-.983-1.125a1.022 1.022 0 00-.81.336 1.078 1.078 0 00-.279.848v2.734h-.9V9.824z" fill="#fff"/><path fill-rule="evenodd" clip-rule="evenodd" d="M77.126 12.159a2.267 2.267 0 01.1-.91c.096-.293.25-.562.452-.79.202-.229.449-.411.724-.536a2.116 2.116 0 011.748 0c.275.125.522.307.725.536a2.264 2.264 0 01.552 1.7c.029.307-.005.617-.1.91a2.228 2.228 0 01-.45.792c-.203.229-.45.412-.726.537a2.117 2.117 0 01-2.475-.537 2.228 2.228 0 01-.45-.792 2.27 2.27 0 01-.1-.91zm3.374 0c0-1.013-.443-1.606-1.223-1.606-.782 0-1.222.593-1.222 1.606 0 1.02.44 1.608 1.222 1.608.78 0 1.224-.591 1.224-1.608zm3.57-.379c-1.085.07-1.696.554-1.696 1.396a1.441 1.441 0 00.457 1.044 1.37 1.37 0 001.063.354c.27.013.54-.048.781-.177a1.55 1.55 0 00.588-.557h.071v.657h.866v-3.193c0-.987-.644-1.57-1.787-1.57-1.035 0-1.771.515-1.863 1.317h.87c.1-.33.449-.519.951-.519.615 0 .934.279.934.772v.404l-1.235.073zm1.235.606v.39a1.122 1.122 0 01-.38.768 1.067 1.067 0 01-.801.254c-.49 0-.846-.245-.846-.665 0-.412.285-.631.913-.674l1.114-.073zm2.078-.227c0-1.477.74-2.412 1.892-2.412.285-.014.568.056.816.201.247.146.45.36.583.618h.067V8h.9v6.497h-.863v-.738h-.07a1.602 1.602 0 01-.606.612 1.551 1.551 0 01-.827.203c-1.16 0-1.892-.935-1.892-2.415zm.93 0c0 .99.455 1.587 1.218 1.587.758 0 1.227-.605 1.227-1.583 0-.974-.474-1.588-1.227-1.588-.758 0-1.219.6-1.219 1.584zm7.151-.91c-.095.293-.13.602-.1.91a2.244 2.244 0 00.549 1.702c.203.229.45.412.726.537a2.115 2.115 0 001.75 0c.275-.125.522-.308.724-.537a2.262 2.262 0 00.551-1.702 2.266 2.266 0 00-.1-.91 2.226 2.226 0 00-.452-.79 2.16 2.16 0 00-.724-.536 2.115 2.115 0 00-1.748 0 2.162 2.162 0 00-.725.536 2.227 2.227 0 00-.45.79zm2.051-.696c.78 0 1.223.593 1.223 1.606 0 1.017-.444 1.608-1.223 1.608-.782 0-1.222-.587-1.222-1.608 0-1.013.44-1.606 1.222-1.606z" fill="#fff"/><path d="M100.871 9.824h.866v.742h.067a1.39 1.39 0 01.551-.639 1.33 1.33 0 01.81-.193 1.45 1.45 0 01.652.1c.207.083.393.213.545.38a1.535 1.535 0 01.381 1.258v3.025h-.9v-2.793c0-.751-.318-1.125-.984-1.125a1.04 1.04 0 00-.809.336 1.082 1.082 0 00-.279.848v2.734h-.9V9.824zm8.956.021V8.661h-.9v1.184h-.724v.777h.724v2.64c0 .9.398 1.26 1.399 1.26.164 0 .328-.017.489-.046v-.768a3.02 3.02 0 01-.343.02c-.448 0-.645-.213-.645-.703v-2.403h.988v-.777h-.988zM112.044 8h.892v2.575h.071c.12-.269.318-.494.566-.644.249-.15.537-.217.825-.193a1.471 1.471 0 011.184.493 1.577 1.577 0 01.386 1.25v3.016h-.901v-2.79c0-.746-.339-1.124-.975-1.124a1.043 1.043 0 00-.843.319 1.104 1.104 0 00-.305.866v2.729h-.9V8z" fill="#fff"/><path fill-rule="evenodd" clip-rule="evenodd" d="M120.466 14.279c.361-.247.626-.617.748-1.044h-.866a1.108 1.108 0 01-.458.453c-.193.1-.411.14-.627.114a1.208 1.208 0 01-1.152-.832 1.262 1.262 0 01-.062-.507v-.052h3.22v-.321c0-1.468-.766-2.356-2.034-2.356-.302-.003-.6.061-.875.187s-.521.31-.72.542a2.2 2.2 0 00-.507 1.712 2.17 2.17 0 00.07.91c.088.295.237.566.438.796a2.05 2.05 0 001.598.706c.431.048.866-.06 1.227-.308zm-.114-2.55h-2.303a1.215 1.215 0 01.341-.86 1.16 1.16 0 01.84-.35 1.073 1.073 0 01.822.35 1.135 1.135 0 01.3.86z" fill="#fff"/><path d="M87.75 27.301c.14 1.278 1.35 2.117 3.006 2.117 1.586 0 2.727-.839 2.727-1.991 0-1-.688-1.6-2.318-2.01l-1.63-.402c-2.308-.572-3.38-1.678-3.38-3.474 0-2.223 1.89-3.75 4.575-3.75 2.657 0 4.478 1.527 4.54 3.75h-1.9c-.114-1.286-1.15-2.062-2.667-2.062-1.516 0-2.553.785-2.553 1.928 0 .911.663 1.448 2.283 1.858l1.386.348c2.58.626 3.651 1.688 3.651 3.573 0 2.41-1.873 3.92-4.854 3.92-2.788 0-4.67-1.474-4.792-3.805h1.926z" fill="#fff"/><path fill-rule="evenodd" clip-rule="evenodd" d="M53.18 27.409h4.794l1.15 3.483h2.064l-4.54-12.887H54.54L50 30.892h2.03l1.15-3.483zm4.296-1.607h-3.799l1.874-5.653h.052l1.873 5.652zm13.516.393c0 2.92-1.525 4.795-3.826 4.795a3.047 3.047 0 01-1.672-.397c-.51-.29-.93-.723-1.212-1.247h-.043V34h-1.882V21.496h1.821v1.563h.035a3.292 3.292 0 011.235-1.244 3.189 3.189 0 011.684-.417c2.326 0 3.86 1.885 3.86 4.797zm-1.934 0c0-1.902-.96-3.153-2.423-3.153-1.437 0-2.404 1.277-2.404 3.153 0 1.893.967 3.16 2.404 3.16 1.464 0 2.423-1.24 2.423-3.16zm12.024 0c0 2.92-1.525 4.795-3.826 4.795a3.046 3.046 0 01-1.673-.397c-.51-.29-.93-.723-1.211-1.247h-.044V34h-1.882V21.496h1.822v1.563h.034a3.292 3.292 0 011.236-1.244 3.189 3.189 0 011.683-.417c2.327 0 3.86 1.885 3.86 4.797zm-1.935 0c0-1.902-.959-3.153-2.422-3.153-1.438 0-2.405 1.277-2.405 3.153 0 1.893.967 3.16 2.405 3.16 1.463 0 2.422-1.24 2.422-3.16z" fill="#fff"/><path d="M99.531 21.497v-2.224h-1.89v2.224h-1.333v1.527h1.333v5.385c0 1.822.723 2.537 2.579 2.537.351.006.701-.024 1.046-.09v-1.518a5.856 5.856 0 01-.619.045c-.767 0-1.116-.375-1.116-1.18v-5.18h1.743v-1.526h-1.743z" fill="#fff"/><path fill-rule="evenodd" clip-rule="evenodd" d="M106.632 21.38c-2.649 0-4.348 1.858-4.348 4.815 0 2.964 1.682 4.813 4.348 4.813s4.348-1.85 4.348-4.813c0-2.957-1.69-4.814-4.348-4.814zm0 1.59c1.524 0 2.431 1.197 2.431 3.225 0 2.036-.907 3.223-2.431 3.223-1.525 0-2.431-1.187-2.431-3.223 0-2.019.906-3.225 2.431-3.225z" fill="#fff"/><path d="M114.326 21.496h-1.794v9.396h1.881v-5.573a1.997 1.997 0 01.083-.827c.086-.267.226-.51.413-.716a1.859 1.859 0 011.465-.619c.286-.008.572.031.846.117V21.47a2.843 2.843 0 00-.645-.072 2.152 2.152 0 00-1.397.448c-.401.309-.687.75-.808 1.25h-.044v-1.6z" fill="#fff"/><path fill-rule="evenodd" clip-rule="evenodd" d="M121.948 31.008c2.073 0 3.694-1.17 3.947-2.876h-1.787a2.113 2.113 0 01-.844 1.02 2.036 2.036 0 01-1.273.302 2.338 2.338 0 01-.989-.18 2.4 2.4 0 01-.83-.58 2.468 2.468 0 01-.523-.88 2.529 2.529 0 01-.124-1.021v-.117H126v-.66c0-2.85-1.595-4.635-4.131-4.635-2.579 0-4.243 1.911-4.243 4.858 0 2.938 1.655 4.77 4.322 4.77zm2.169-5.68h-4.583a2.43 2.43 0 01.683-1.69 2.32 2.32 0 01.758-.517c.284-.119.587-.18.894-.177.304-.007.605.05.886.17a2.2 2.2 0 01.746.518c.212.224.375.49.481.782.106.292.152.603.135.914z" fill="#fff"/><path d="M27.066 12.49A4.873 4.873 0 0028.18 9a4.958 4.958 0 00-3.207 1.66 4.638 4.638 0 00-1.144 3.361 4.098 4.098 0 003.237-1.53zm2.731 8.09a4.95 4.95 0 012.357-4.152 5.067 5.067 0 00-3.991-2.157c-1.027-.108-2.035.292-2.86.619-.522.207-.97.385-1.303.385-.378 0-.84-.185-1.357-.393-.676-.271-1.448-.581-2.252-.565a5.315 5.315 0 00-4.473 2.728c-1.934 3.349-.491 8.27 1.362 10.976.926 1.326 2.01 2.806 3.427 2.754.643-.027 1.1-.22 1.57-.417.546-.23 1.111-.468 2.01-.468.847 0 1.388.23 1.907.452.498.212.976.416 1.684.4 1.488-.025 2.426-1.332 3.32-2.67a10.96 10.96 0 001.519-3.092 4.781 4.781 0 01-2.92-4.4z" fill="#fff"/><rect x=".5" y=".5" width="143" height="39" rx="7.5" stroke="#5A6672"/></svg>