<svg width="144" height="40" fill="none" xmlns="http://www.w3.org/2000/svg"><path d="M12.518 7.336c-.31.303-.518.809-.518 1.415v22.34c0 .607.207 1.112.518 1.415l.104.101 12.855-12.534v-.202L12.518 7.336z" fill="url(#paint0_linear_1818_2564)"/><path d="M29.728 24.318l-4.25-4.145v-.301l4.25-4.145.104.1 5.08 2.831c1.451.809 1.451 2.123 0 2.932l-5.184 2.729z" fill="url(#paint1_linear_1818_2564)"/><path d="M29.832 24.217l-4.355-4.245L12.52 32.607c.518.506 1.244.506 2.177.101l15.136-8.49z" fill="url(#paint2_linear_1818_2564)"/><path d="M29.832 15.726l-15.136-8.39c-.933-.505-1.66-.404-2.177.101l12.958 12.534 4.355-4.245z" fill="url(#paint3_linear_1818_2564)"/><path opacity=".2" d="M29.728 24.116l-15.032 8.289c-.83.505-1.555.404-2.074 0l-.103.101.103.101c.519.404 1.244.505 2.074 0l15.032-8.491z" fill="#000"/><path opacity=".12" d="M12.519 32.405c-.311-.303-.415-.809-.415-1.415v.1c0 .607.207 1.113.518 1.416v-.101h-.103zm22.393-11.119l-5.184 2.83.104.101 5.08-2.83c.725-.404 1.036-.91 1.036-1.415 0 .505-.414.91-1.036 1.314z" fill="#000"/><path opacity=".25" d="M14.696 7.437l20.216 11.22c.622.405 1.037.81 1.037 1.315 0-.506-.311-1.011-1.037-1.416L14.696 7.336c-1.452-.809-2.592-.101-2.592 1.516v.101c0-1.617 1.14-2.325 2.592-1.516z" fill="#fff"/><path d="M75.875 8h-.9v6.497h.9V8z" fill="#fff"/><path fill-rule="evenodd" clip-rule="evenodd" d="M53.441 8.305c.395-.029.79.032 1.16.179.368.147.7.376.972.67.272.294.477.647.6 1.032s.161.794.111 1.196c0 1.978-1.043 3.115-2.843 3.115H51.26V8.305h2.182zm-1.243 5.316h1.139c.282.018.564-.03.825-.138a1.9 1.9 0 00.688-.49 1.992 1.992 0 00.48-1.6 1.999 1.999 0 00-.07-.849 1.964 1.964 0 00-.418-.738 1.904 1.904 0 00-.684-.486 1.863 1.863 0 00-.821-.14h-1.14v4.441zm5.247-2.372c-.095.293-.13.602-.1.91a2.263 2.263 0 00.55 1.702c.202.229.449.412.724.537a2.115 2.115 0 001.75 0 2.15 2.15 0 00.725-.537 2.262 2.262 0 00.551-1.702 2.267 2.267 0 00-.101-.91 2.228 2.228 0 00-.451-.79 2.162 2.162 0 00-.725-.536 2.115 2.115 0 00-1.748 0 2.161 2.161 0 00-.724.536 2.227 2.227 0 00-.451.79zm2.05-.696c.78 0 1.224.593 1.224 1.606 0 1.017-.444 1.608-1.223 1.608-.782 0-1.222-.587-1.222-1.608 0-1.013.44-1.606 1.222-1.606z" fill="#fff"/><path d="M66.427 14.497h.934l1.251-4.673h-.9L66.9 13.39h-.071l-.938-3.566h-.863l-.937 3.566h-.067l-.817-3.566h-.913l1.257 4.673h.924l.939-3.441h.07l.943 3.441zm4.109-4.673h-.867v4.673h.9v-2.734a1.097 1.097 0 01.28-.848 1.022 1.022 0 01.81-.336c.664 0 .983.374.983 1.125v2.793h.9v-3.025a1.556 1.556 0 00-.382-1.258 1.483 1.483 0 00-.545-.38 1.45 1.45 0 00-.652-.1 1.338 1.338 0 00-.81.193 1.39 1.39 0 00-.55.64h-.067v-.743z" fill="#fff"/><path fill-rule="evenodd" clip-rule="evenodd" d="M77.126 12.159a2.264 2.264 0 01.552-1.7c.202-.229.449-.411.724-.536a2.115 2.115 0 011.748 0c.275.125.522.307.725.536a2.267 2.267 0 01.552 1.7c.029.307-.005.617-.1.91a2.228 2.228 0 01-.45.792c-.203.229-.45.412-.726.537a2.118 2.118 0 01-2.475-.537 2.228 2.228 0 01-.45-.792 2.266 2.266 0 01-.1-.91zm3.375 0c0-1.013-.444-1.606-1.224-1.606-.782 0-1.222.593-1.222 1.606 0 1.02.44 1.608 1.222 1.608.78 0 1.224-.591 1.224-1.608zm1.873 1.017c0-.842.61-1.326 1.696-1.395l1.235-.073v-.404c0-.493-.319-.772-.934-.772-.502 0-.85.19-.95.52h-.871c.092-.803.829-1.318 1.863-1.318 1.143 0 1.788.583 1.788 1.57v3.193h-.867v-.657h-.07a1.55 1.55 0 01-.589.557c-.24.129-.51.19-.781.177a1.346 1.346 0 01-1.063-.354 1.441 1.441 0 01-.457-1.045zm2.93-.4v-.39l-1.113.073c-.628.043-.912.261-.912.674 0 .42.356.665.845.665a1.049 1.049 0 00.802-.255 1.097 1.097 0 00.379-.767zm2.079-.617c0-1.477.74-2.412 1.893-2.412a1.47 1.47 0 01.815.201c.248.146.45.36.583.618h.067V8h.9v6.497h-.863v-.738h-.07a1.602 1.602 0 01-.606.612 1.552 1.552 0 01-.826.203c-1.16 0-1.893-.935-1.893-2.415zm.93 0c0 .99.455 1.587 1.218 1.587.758 0 1.227-.605 1.227-1.583 0-.974-.474-1.588-1.227-1.588-.758 0-1.219.6-1.219 1.584zm7.051 0a2.266 2.266 0 01.1-.91c.095-.293.249-.562.451-.79.203-.229.45-.41.725-.536a2.116 2.116 0 011.748 0c.275.125.522.307.724.536a2.243 2.243 0 01.551 1.7 2.265 2.265 0 01-.55 1.702 2.15 2.15 0 01-.725.537 2.115 2.115 0 01-1.75 0 2.164 2.164 0 01-.724-.537 2.265 2.265 0 01-.55-1.702zm3.374 0c0-1.013-.444-1.606-1.223-1.606-.782 0-1.222.593-1.222 1.606 0 1.02.44 1.608 1.222 1.608.78 0 1.223-.591 1.223-1.608z" fill="#fff"/><path d="M100.871 9.824h.866v.742h.067c.115-.266.307-.49.551-.639a1.33 1.33 0 01.81-.193 1.45 1.45 0 01.652.1c.207.083.393.213.545.38a1.535 1.535 0 01.381 1.258v3.025h-.9v-2.793c0-.751-.318-1.125-.983-1.125a1.023 1.023 0 00-.81.336 1.099 1.099 0 00-.279.848v2.734h-.9V9.824zm8.956-1.164v1.185h.988v.777h-.988v2.403c0 .49.197.704.645.704.115 0 .229-.008.343-.021v.768c-.161.03-.325.045-.489.047-1.001 0-1.399-.36-1.399-1.262v-2.639h-.724v-.777h.724V8.661h.9zm2.217-.66h.892v2.575h.071c.12-.269.318-.494.566-.644.249-.15.537-.217.825-.193a1.471 1.471 0 011.184.493 1.577 1.577 0 01.386 1.25v3.016h-.901v-2.79c0-.746-.339-1.124-.975-1.124a1.043 1.043 0 00-.843.319 1.104 1.104 0 00-.305.866v2.729h-.9V8z" fill="#fff"/><path fill-rule="evenodd" clip-rule="evenodd" d="M121.214 13.235a1.894 1.894 0 01-.748 1.044 1.816 1.816 0 01-1.227.308 2.025 2.025 0 01-.875-.173 2.068 2.068 0 01-.723-.533 2.17 2.17 0 01-.508-1.706 2.2 2.2 0 01.507-1.712c.2-.231.445-.416.72-.542.275-.126.574-.19.875-.187 1.268 0 2.034.888 2.034 2.356v.321h-3.22v.052a1.262 1.262 0 00.318.945c.115.126.254.226.408.294.154.068.321.102.488.1a1.07 1.07 0 00.627-.114c.193-.101.353-.259.458-.453h.866zm-3.165-1.506h2.303a1.153 1.153 0 00-.3-.86 1.088 1.088 0 00-.822-.35 1.16 1.16 0 00-.84.35 1.203 1.203 0 00-.341.86zM72.539 26.42c0-2.398 1.886-4.125 4.27-4.125 2.383 0 4.269 1.631 4.269 4.126 0 2.398-1.886 4.125-4.27 4.125-2.383 0-4.269-1.823-4.269-4.125zm1.886-.095c0 1.439 1.093 2.494 2.383 2.494 1.291 0 2.383-1.055 2.383-2.494 0-1.535-1.092-2.495-2.383-2.495-1.29 0-2.383 1.056-2.383 2.495zm-11.12.095c0-2.398 1.887-4.125 4.27-4.125 2.382 0 4.269 1.631 4.269 4.126 0 2.398-1.886 4.125-4.27 4.125-2.382 0-4.269-1.823-4.269-4.125zm1.887-.095c0 1.439 1.092 2.494 2.383 2.494 1.29 0 2.382-1.055 2.382-2.494 0-1.535-1.092-2.495-2.382-2.495-1.291 0-2.383 1.056-2.383 2.495z" fill="#fff"/><path d="M56.553 25.27v-1.728h6.156c.1.288.1.672.1 1.056 0 1.247-.398 2.878-1.59 4.03-1.19 1.247-2.58 1.822-4.566 1.822-3.575 0-6.653-2.878-6.653-6.332 0-3.454 3.078-6.332 6.653-6.332 1.985 0 3.375.767 4.468 1.727L59.83 20.76c-.794-.672-1.887-1.247-3.277-1.247-2.581 0-4.666 2.015-4.666 4.605 0 2.59 1.985 4.605 4.666 4.605 1.688 0 2.681-.671 3.277-1.247.496-.48.893-1.247.993-2.207h-4.27z" fill="#fff"/><path fill-rule="evenodd" clip-rule="evenodd" d="M98.057 22.295c2.184 0 3.177 1.631 3.574 2.59l.199.48-5.66 2.303c.497.863 1.092 1.247 2.085 1.247.993 0 1.589-.48 2.085-1.151l1.39.96c-.397.67-1.588 1.822-3.475 1.822-2.383 0-4.17-1.823-4.17-4.125 0-2.495 1.787-4.126 3.972-4.126zm0 1.535c-.894 0-2.185.864-2.185 2.399l3.773-1.535c-.198-.48-.893-.864-1.588-.864z" fill="#fff"/><path d="M93.092 30.162h-1.886V18.17h1.886v11.992z" fill="#fff"/><path fill-rule="evenodd" clip-rule="evenodd" d="M85.943 22.2c.993 0 1.788.479 2.284.959v-.672h1.787v7.292c0 2.974-1.787 4.221-3.971 4.221-2.086 0-3.277-1.343-3.774-2.398l1.59-.672c.198.672.992 1.439 2.084 1.439 1.39 0 2.284-.863 2.284-2.398v-.576h-.1c-.396.48-1.19.96-2.184.96-2.184 0-4.07-1.728-4.07-4.03 0-2.303 1.985-4.126 4.07-4.126zm-2.283 4.125c0 1.439 1.092 2.494 2.383 2.494 1.29 0 2.283-1.055 2.283-2.494 0-1.44-.993-2.495-2.283-2.495-1.291 0-2.383 1.056-2.383 2.495zm22.141-8.155h4.469c2.085 0 4.07 1.439 4.07 3.741 0 2.303-1.985 3.742-4.07 3.742h-2.582v4.51h-1.887V18.17zm1.887 5.756h2.681c1.291 0 2.085-1.055 2.184-2.11 0-.864-.794-2.015-2.184-2.015h-2.681v4.125zm10.823.096c.496-1.247 1.886-1.823 3.276-1.823 2.085 0 3.773 1.247 3.972 3.358v4.605h-1.787v-.96h-.1c-.496.577-1.092 1.152-2.383 1.152-1.588 0-3.078-1.055-3.078-2.686 0-1.727 1.788-2.686 3.575-2.686.794 0 1.588.287 1.886.48v-.097c-.099-.96-.993-1.535-1.985-1.535-.696 0-1.291.192-1.688.864l-1.688-.672zm1.588 3.742c0 .767.894 1.055 1.49 1.055.993 0 1.985-.767 2.184-1.919l-.148-.058c-.433-.17-.826-.325-1.54-.325-.894 0-1.986.287-1.986 1.247z" fill="#fff"/><path d="M129.929 27.668l2.085-5.181H134l-5.064 11.321h-1.886l1.886-4.03-3.276-7.291h1.985l2.185 5.18h.099zm-12.709 2.494h-1.887V18.17h1.887v11.992z" fill="#fff"/><rect x=".5" y=".5" width="143" height="39" rx="7.5" stroke="#9FB1C4"/><defs><linearGradient id="paint0_linear_1818_2564" x1="24.337" y1="8.559" x2="7.378" y2="25.952" gradientUnits="userSpaceOnUse"><stop stop-color="#00A0FF"/><stop offset=".007" stop-color="#00A1FF"/><stop offset=".26" stop-color="#00BEFF"/><stop offset=".512" stop-color="#00D2FF"/><stop offset=".76" stop-color="#00DFFF"/><stop offset="1" stop-color="#00E3FF"/></linearGradient><linearGradient id="paint1_linear_1818_2564" x1="36.813" y1="19.973" x2="11.728" y2="19.973" gradientUnits="userSpaceOnUse"><stop stop-color="#FFE000"/><stop offset=".409" stop-color="#FFBD00"/><stop offset=".775" stop-color="orange"/><stop offset="1" stop-color="#FF9C00"/></linearGradient><linearGradient id="paint2_linear_1818_2564" x1="27.475" y1="22.293" x2="4.478" y2="45.879" gradientUnits="userSpaceOnUse"><stop stop-color="#FF3A44"/><stop offset="1" stop-color="#C31162"/></linearGradient><linearGradient id="paint3_linear_1818_2564" x1="9.302" y1="-.067" x2="19.572" y2="10.465" gradientUnits="userSpaceOnUse"><stop stop-color="#32A071"/><stop offset=".069" stop-color="#2DA771"/><stop offset=".476" stop-color="#15CF74"/><stop offset=".801" stop-color="#06E775"/><stop offset="1" stop-color="#00F076"/></linearGradient></defs></svg>