<svg width="18" height="18" fill="none" xmlns="http://www.w3.org/2000/svg"><path d="M.627 9c.213.474.48.958.8 1.446.684 1.043 1.623 2.13 2.79 3.232a31.28 31.28 0 003.93 3.14l.494.325c.218.143.5.143.718 0l.494-.324a31.678 31.678 0 003.93-3.14c1.167-1.103 2.106-2.19 2.79-3.233A10.5 10.5 0 0017.374 9H.627z" fill="#FFD600"/><path d="M16.379 2.366A5.551 5.551 0 0118 6.304c0 .71-.142 1.45-.423 2.202-.06.163-.128.328-.203.494H.627a8.29 8.29 0 01-.204-.494A6.295 6.295 0 010 6.304a5.576 5.576 0 011.623-3.938A5.489 5.489 0 015.507.75 5.47 5.47 0 019 2.01a5.47 5.47 0 017.378.356z" fill="#09F"/></svg>