<svg width="20" height="20" fill="none" xmlns="http://www.w3.org/2000/svg"><path fill-rule="evenodd" clip-rule="evenodd" d="M0 3v14a3 3 0 002.997 3h14.006A3 3 0 0020 17.005V2.995A3 3 0 0017.004 0H2.996A3 3 0 000 3zm10.624 5.985v-1.36H7.916v9.582h2.917v-4.642c0-1.555.572-2.545 1.95-2.545.992 0 1.383.918 1.383 2.546v4.641h2.916v-5.293c0-2.857-.683-4.414-3.564-4.414-1.503 0-2.503.704-2.894 1.485zm-4.791 8.098H2.916V7.5h2.917v9.583zm.286-11.978A1.876 1.876 0 102.63 3.727a1.876 1.876 0 003.49 1.378z" fill="#EBF0F5"/></svg>