<svg width="20" height="20" fill="none" xmlns="http://www.w3.org/2000/svg"><path d="M10 1a9 9 0 10.001 18.001A9 9 0 0010 1zm3.72 9.24c.35.55.69.78 1.31.48.57-.27 1.03-.29 1.06.43.02.5.69.57.68 1.03-.01.5-.49.86-.23 1.31A7.42 7.42 0 0110 17.41c-4.09 0-7.41-3.32-7.41-7.41 0-.96.19-1.87.52-2.71.15.46.81 1.25 1.08 1.27.16.51.18.81.8.91.26.04.55.02.78.16.14.09.65.48.78.62s.36.21.47.36c.22.3-.28.7-.32 1.01-.07.56.59.99.96 1.3.5.4.36.95.28 1.52-.12.91-.07 1.98.77 2.53.34.22.68.19.5-.28-.1-.27-.24-.91-.09-1.17.05-.08.97-.66 1.09-1.03.04-.15.01-.3.09-.44.11-.18.35-.25.53-.35.18-.1.35-.19.36-.42.01-.18-.11-.34-.08-.53.05-.33.67-.57.44-.93-.22-.35-.83-.35-1.18-.5-.3-.13-.48-.41-.76-.58-.34-.2-.68-.34-1-.57-.33-.24-.74-.42-1.14-.25-.27.11-.68.49-.96.15-.11-.13-.02-.29-.09-.42-.06-.14-.34-.1-.39-.22-.05-.14.27-.24.26-.29-.12-.4-.61.02-.84-.01C5.22 9.1 5 8.8 5 8.57c-.02-.65.88-.96 1.38-.79.33.11.4.34.31.64.3.02.47-.19.54-.47.09-.37 1.14-1.5 1.36-1.61.24-.12 1.42.28.75-.58.19-.2.62-.01.67.24.21.01.36-.2.35-.4-.01-.24-.22-.32-.4-.44-.23-.16-.52-.65-.83-.6-.49.08-.67.82-1.24.64-.39-.13-.6-.61-.1-.77.25-.08.8-.12.62-.55-.21-.5-.69.12-.97.18-.25.05-.57-.16-.36-.19.11-.02.29-.07.23-.23-.05-.14-.19-.07-.28-.11-.24-.13-.02-.32-.02-.33.73-1.09 2.16-.49 2.18-.43.08.36-.66.59-.2.93.23.17.32.16.44.43.07.16.17.43.39.44.22.01.34-.26.34-.44 0-.25-.16-.41-.38-.5-.14-.06-.27-.04-.29-.21-.01-.14.17-.4.29-.45.18-.08.3.07.44.16.17.11.27.13.46.12.38-.03.74.08.61.55-.06.24-.36 1 .2.87.22-.05.37-.31.54-.44.2-.15.41-.2.65-.24.31-.05.82-.12 1.05-.39.52.31 1 .67 1.43 1.09-.02.02-.47.16-.65.26-.18.1-.45.45-.28.66.18.22.63-.21.72.09.03.1-.11.21-.07.32.05.14.35.17.22.37-.09.15-.48.12-.63.25-.51.46.41.5.7.36.27-.13.11-.36.29-.51.23-.19.62-.1.81.09.14.13.64.9.64.9s-.53.09-.79-.21c-.18-.22-.32-.16-.55-.03-.27.15-1.16.38-1.31.61-.26.43-.8.79-.89 1.3-.06.4.15.78.35 1.09z" fill="#09F"/></svg>